<svg width="45" height="45" viewBox="0 0 45 45" fill="none" xmlns="http://www.w3.org/2000/svg">
<path fill-rule="evenodd" clip-rule="evenodd" d="M16.996 8H16.999C17.084 8.008 17.089 8.735 17.52 9.159C18.406 10.012 18.73 10.007 19.56 10.391C21.459 11.274 21.595 13.937 21.668 15.184C21.743 16.383 21.476 16.17 20.428 16.087C19.751 16.037 17.651 15.663 16.774 13.345C15.895 11.028 16.817 8 16.996 8ZM26.455 12.647C26.564 12.5621 26.7008 12.5211 26.8385 12.5321C26.9761 12.543 27.1048 12.605 27.199 12.706C27.2846 12.8114 27.3262 12.9458 27.315 13.0811C27.3038 13.2164 27.2408 13.3421 27.139 13.432C24.963 15.145 23.653 17.692 23.542 20.419L23.575 20.381C26.017 17.457 29.733 16.976 31.813 18.649C33.434 19.953 33.993 21.899 34 23.612V23.686C33.9986 24.0869 33.9665 24.487 33.904 24.883C33.345 28.699 30.39 31.393 23 37C15.61 31.393 12.638 28.7 12.091 24.883C12.0323 24.4706 12.0019 24.0546 12 23.638V23.571C12.007 21.873 12.523 19.985 14.188 18.649C16.302 16.955 20.253 17.469 22.492 20.355C22.617 17.348 24.061 14.541 26.455 12.647Z" fill="url(#paint0_linear_14_520)"/>
<defs>
<linearGradient id="paint0_linear_14_520" x1="2212" y1="1458" x2="-63.306" y2="1458" gradientUnits="userSpaceOnUse">
<stop stop-color="#0AADD7"/>
<stop offset="1" stop-color="#5ACC5A"/>
</linearGradient>
</defs>
</svg>
