<svg width="30" height="26" viewBox="0 0 30 26" fill="none" xmlns="http://www.w3.org/2000/svg">
<g clip-path="url(#clip0_1_1251)">
<path fill-rule="evenodd" clip-rule="evenodd" d="M28.4049 0.908569H6.90898C6.34698 0.908569 5.92549 1.34975 5.92549 2.08504V5.32033H1.42963C0.867647 5.32033 0.305664 5.90857 0.305664 6.4968V21.2026C0.305664 23.5556 1.99161 25.3203 4.09905 25.3203H25.7354C27.8429 25.3203 29.3883 23.5556 29.3883 21.2026V2.08504C29.3883 1.34975 28.9668 0.908569 28.4049 0.908569ZM27.2808 3.26151V21.2026C27.2808 21.7909 27.1404 22.9673 25.8759 22.9673H7.75195C8.03294 22.3791 8.17344 21.7909 8.17344 21.2026V3.26151H27.2808ZM5.92544 21.35V7.82063H2.55354V21.35C2.55354 22.3794 3.25601 23.1147 4.23948 23.1147H4.37998C5.36344 22.9676 5.92544 22.2323 5.92544 21.35Z" fill="#058574"/>
<path d="M12.2477 15.0259H23.6279C24.3304 15.0259 24.8923 14.4377 24.8923 13.7024C24.8923 12.9671 24.3304 12.3789 23.6279 12.3789H12.2477C11.5453 12.3789 10.9833 12.9671 10.9833 13.7024C10.9833 14.4377 11.5453 15.0259 12.2477 15.0259Z" fill="#058574"/>
<path d="M17.3056 10.3203H23.628C24.3304 10.3203 24.8925 9.7321 24.8925 8.99681C24.8925 8.26151 24.3304 7.67328 23.628 7.67328H17.3056C16.6032 7.67328 16.0411 8.26151 16.0411 8.99681C16.0411 9.7321 16.6032 10.3203 17.3056 10.3203Z" fill="#058574"/>
<path d="M12.1201 19.7318H23.6152C24.3249 19.7318 24.8924 19.0782 24.8924 18.2612C24.8924 17.4443 24.3249 16.7906 23.6152 16.7906H12.1201C11.4105 16.7906 10.8429 17.4443 10.8429 18.2612C10.8429 19.0782 11.4105 19.7318 12.1201 19.7318Z" fill="#058574"/>
</g>
<defs>
<clipPath id="clip0_1_1251">
<rect width="30" height="25" fill="white" transform="translate(0 0.5)"/>
</clipPath>
</defs>
</svg>
