<svg width="57" height="45" viewBox="0 0 57 45" fill="none" xmlns="http://www.w3.org/2000/svg">
<path d="M14.0167 31.5312L9.867 32.44L3.30974 8.43351L9.91586 6.98671L14.0167 31.5312ZM10.0068 40.382C9.74917 39.2055 9.86421 38.2472 10.352 37.5073C10.8362 36.7514 11.6507 36.2481 12.7955 35.9974C13.9243 35.7502 14.8605 35.8784 15.6039 36.382C16.3474 36.8857 16.8427 37.7019 17.0899 38.8308C17.3372 39.9596 17.2239 40.9258 16.7501 41.7294C16.2886 42.5136 15.5015 43.0275 14.3885 43.2713C13.2597 43.5185 12.3076 43.3938 11.5324 42.8971C10.773 42.3969 10.2645 41.5586 10.0068 40.382Z" fill="#FE0000"/>
<path d="M43.5567 32.7992L39.6023 31.2472L47.5004 7.64788L53.7956 10.1185L43.5567 32.7992ZM35.3025 37.9261C35.7425 36.8049 36.371 36.0724 37.1878 35.7286C38.0106 35.3696 38.9674 35.4042 40.0583 35.8323C41.134 36.2545 41.8408 36.8816 42.1787 37.7136C42.5166 38.5456 42.4744 39.4994 42.0523 40.5752C41.6301 41.6509 40.9987 42.391 40.158 42.7954C39.3385 43.1906 38.3984 43.1801 37.3379 42.7639C36.2622 42.3417 35.5402 41.7087 35.172 40.8648C34.819 40.0268 34.8625 39.0473 35.3025 37.9261Z" fill="#FE0000"/>
<path d="M28.3186 25.1602H24.0705L22.801 0.306641H29.5637L28.3186 25.1602ZM22.508 32.9482C22.508 31.7438 22.8254 30.8324 23.4602 30.2139C24.0949 29.5791 24.9983 29.2617 26.1701 29.2617C27.3257 29.2617 28.2128 29.5872 28.8313 30.2383C29.4498 30.8893 29.759 31.7926 29.759 32.9482C29.759 34.1038 29.4416 35.0234 28.8069 35.707C28.1884 36.3743 27.3095 36.708 26.1701 36.708C25.0145 36.708 24.1112 36.3825 23.4602 35.7314C22.8254 35.0804 22.508 34.1527 22.508 32.9482Z" fill="#FE0000"/>
</svg>
